<?xml version="1.0" encoding="UTF-8" standalone="no"?>
<svg width="148px" height="119px" viewBox="0 0 148 119" version="1.1" xmlns="http://www.w3.org/2000/svg" xmlns:xlink="http://www.w3.org/1999/xlink">
    <!-- Generator: Sketch 49.3 (51167) - http://www.bohemiancoding.com/sketch -->
    <title>finance</title>
    <desc>Created with Sketch.</desc>
    <defs></defs>
    <g id="Page-1" stroke="none" stroke-width="1" fill="none" fill-rule="evenodd">
        <g id="Artboard" transform="translate(-7.000000, -7.000000)" fill-rule="nonzero">
            <g id="finance" transform="translate(7.000000, 7.000000)">
                <path d="M35.197983,22.9575153 C26.2435961,29.2745606 20.0801869,49.6294843 19.0335702,57.2333351 C19.149861,59.6899638 18.9172795,62.9654688 19.0335702,65.3051152 C19.7313147,88.7015791 40.547357,105.547033 40.547357,105.547033 L40.547357,116.309407 C40.8962292,117.011301 40.4310663,117.596212 41.2451014,118.064141 C41.9428459,118.532071 42.756881,119 43.5709162,119 L64.7358307,119 L64.7358307,105.547033 C64.7358307,105.547033 72.2947288,105.547033 75.4345787,105.547033 C78.8070102,105.547033 88.8080138,105.547033 88.8080138,105.547033 L88.8080138,119 L110.321801,119 C110.903254,119 112.298743,118.532071 112.763906,118.064141 C113.229069,117.596212 113.46165,117.011301 113.46165,116.426389 L113.46165,98.528094 C124.625561,91.8601018 133.114785,82.2675515 137.301252,71.0372488 L148,66.1239914 L148,44.1313152 L137.650124,44.1313152 C134.742856,36.0595352 128.928319,26.8179319 122.067165,20.8518336 C126.369923,14.417806 132.649622,5.41016735 131.835587,3.77241487 C130.556389,1.08182152 111.717289,-0.321966323 98.8090173,13.1310005 C93.1107711,11.7272126 81.7142787,10.5573894 75.5508695,10.5573894 C71.3644029,10.5573894 67.294227,10.9083364 63.5729234,11.493248" id="Shape" fill="#FFB0CD"></path>
                <circle id="Oval" fill="#454545" cx="111.5" cy="36.5" r="5.5"></circle>
                <circle id="Oval" fill="#FFB933" cx="45.5" cy="19.5" r="19.5"></circle>
                <path d="M5.92817657,46.0744681 C5.81450854,44.787234 7.74686504,44.0851064 8.99721337,43.8510638 L7.51952899,38 C0.131107045,39.8723404 -0.0962290146,45.0212766 0.0174390152,46.5425532 C0.472111135,52.9787234 8.54254125,58.9468085 18.4316599,60 L19,54.0319149 C10.8159019,53.0957447 6.15551263,48.4148936 5.92817657,46.0744681 Z" id="Shape" fill="#FFB0CD"></path>
                <path d="M53,25.0406504 C53,21.2682927 50.6470588,20.2073171 47.4705882,18.5569106 L45.7058824,17.6138211 C42.4117647,15.9634146 41.9411765,15.6097561 41.9411765,13.8414634 C41.9411765,10.8943089 45,10.6585366 45.9411765,10.6585366 C46.8823529,10.6585366 49.9411765,10.8943089 49.9411765,13.8414634 C49.9411765,14.6666667 50.6470588,15.3739837 51.4705882,15.3739837 C52.2941176,15.3739837 53,14.6666667 53,13.8414634 C53,10.5406504 50.7647059,8.30081301 47.4705882,7.82926829 L47.4705882,6.53252033 C47.4705882,5.70731707 46.7647059,5 45.9411765,5 C45.1176471,5 44.4117647,5.70731707 44.4117647,6.53252033 L44.4117647,7.94715447 C41.1176471,8.53658537 39,10.7764228 39,13.9593496 C39,17.7317073 41.3529412,18.7926829 44.5294118,20.3252033 L46.2941176,21.2682927 C49.5882353,22.9186992 50.0588235,23.2723577 50.0588235,25.0406504 C50.0588235,27.8699187 47,28.1056911 46.0588235,28.1056911 C45.1176471,28.1056911 42.0588235,27.8699187 42.0588235,25.0406504 C42.0588235,24.2154472 41.3529412,23.5081301 40.5294118,23.5081301 C39.7058824,23.5081301 39,24.2154472 39,25.0406504 C39,28.2235772 41.1176471,30.4634146 44.4117647,31.0528455 L44.4117647,32.4674797 C44.4117647,33.2926829 45.1176471,34 45.9411765,34 C46.7647059,34 47.4705882,33.2926829 47.4705882,32.4674797 L47.4705882,31.0528455 C50.7647059,30.5813008 53,28.2235772 53,25.0406504 Z" id="Shape" fill="#F6F6F6"></path>
            </g>
        </g>
    </g>
</svg>