<?xml version="1.0" encoding="iso-8859-1"?>
<!-- Generator: Adobe Illustrator 19.0.0, SVG Export Plug-In . SVG Version: 6.00 Build 0)  -->
<svg version="1.1" id="Capa_1" xmlns="http://www.w3.org/2000/svg" xmlns:xlink="http://www.w3.org/1999/xlink" x="0px" y="0px"
	 viewBox="0 0 512 512" style="enable-background:new 0 0 512 512;" xml:space="preserve">
<path style="fill:#FEC478;" d="M331.839,215.597l-38.832,25.381c-23.748,15.522-45.104,35.695-60.84,59.302l-30.278,45.425
	l-9.536-29.531c-10.706-33.159-34.574-43.68-63.974-52.5c3.878-16.802,6.621-26.678,6.621-44.15C135,135.235,40.04,83.063,0,86.998
	L0.115,349.84c0.001,3.158,0.95,6.302,2.748,8.898c54.068,78.079,144.215,121.648,185.93,142.214
	c4.58,2.258,9.855,1.982,14.234-0.645l63.173-37.299c52.321-31.388,92.464-79.576,113.883-136.707l35.267-94.065L331.839,215.597z"
	/>
<path style="fill:#495A79;" d="M392,9.522c-66.301,0-120,53.699-120,120c0,66.299,53.699,120,120,120s120-53.701,120-120
	C512,63.222,458.301,9.522,392,9.522z"/>
<path style="fill:#42516D;" d="M512,129.522c0,66.299-53.699,120-120,120v-240C458.301,9.522,512,63.222,512,129.522z"/>
<path style="fill:#E1E4FB;" d="M392,99.522c-16.5,0-30,13.5-30,30s13.5,30,30,30s30-13.5,30-30S408.5,99.522,392,99.522z"/>
<path style="fill:#C5C9F7;" d="M422,129.522c0,16.5-13.5,30-30,30v-60C408.5,99.522,422,113.023,422,129.522z"/>
<g>
</g>
<g>
</g>
<g>
</g>
<g>
</g>
<g>
</g>
<g>
</g>
<g>
</g>
<g>
</g>
<g>
</g>
<g>
</g>
<g>
</g>
<g>
</g>
<g>
</g>
<g>
</g>
<g>
</g>
</svg>
