<?xml version="1.0" encoding="UTF-8" standalone="no"?>
<svg width="221px" height="264px" viewBox="0 0 221 264" version="1.1" xmlns="http://www.w3.org/2000/svg" xmlns:xlink="http://www.w3.org/1999/xlink">
    <!-- Generator: Sketch 49.3 (51167) - http://www.bohemiancoding.com/sketch -->
    <title>Group</title>
    <desc>Created with Sketch.</desc>
    <defs></defs>
    <g id="Page-1" stroke="none" stroke-width="1" fill="none" fill-rule="evenodd">
        <g id="Artboard" transform="translate(-59.000000, -37.000000)" fill-rule="nonzero">
            <g id="Group" transform="translate(59.000000, 37.000000)">
                <path d="M116.581815,76.6557827 C115.750961,79.1437379 113.050686,80.5950451 110.35041,79.7657267 C107.857848,78.9364083 106.403853,76.2411235 107.234707,73.5458387 C114.089253,51.9835605 122.397794,34.5678742 133.406611,23.5794055 C145.246281,11.968948 159.578514,7.61502638 177.64959,13.8349143 C180.142152,14.6642327 181.596147,17.5668471 180.765293,20.0548023 C179.934439,22.5427575 177.02645,23.9940647 174.533887,23.1647463 C160.409368,18.3961655 149.400551,21.7134391 140.261157,30.6286118 C130.498621,40.373103 122.813221,56.5448116 116.581815,76.6557827" id="Shape" fill="#002423"></path>
                <path d="M16.5123472,82.3518145 C17.3379646,81.1118952 32.6118858,59 57.3804066,59 C62.7469194,59 68.1134323,60.0332661 73.2735408,62.0997984 C96.1844226,70.7792339 105.679022,71.8125 108.775087,71.8125 C109.187896,71.8125 109.600705,71.8125 109.807109,71.8125 L110.632726,71.8125 L111.458344,71.8125 C112.69677,72.0191532 121.365752,72.2258065 147.785508,62.3064516 C153.15202,60.2399194 158.518533,59.2066532 163.678642,59.2066532 C188.447163,59.2066532 203.514679,80.9052419 204.546701,82.5584677 C224.980731,110.456653 222.710283,145.381048 217.137366,169.972782 C210.532427,199.110887 196.909741,225.769153 186.176715,241.061492 C175.650094,256.353831 163.678642,264 150.881573,264 C143.451016,264 137.465291,261.106855 134.782034,259.453629 C129.621926,256.353831 119.095304,254.493952 113.935196,253.873992 L107.123853,253.873992 C102.170148,254.493952 91.6435271,256.353831 86.2770142,259.453629 C83.3873535,261.106855 77.6080319,264 70.1774757,264 C57.3804066,264 45.6153592,256.353831 34.8823335,241.061492 C24.3557121,225.975806 10.5266214,199.31754 3.92168246,169.972782 C1.85763906,160.466734 0.20640434,149.514113 0,137.941532 L0,137.321573 C0.20640434,118.722782 4.1280868,99.0907258 16.5123472,82.3518145" id="Shape" fill="#E94526"></path>
                <path d="M27,8 C27,8 27,8 27,8 L27,6.91891892 C27,4.10810811 29.0588235,1.51351351 31.7352941,1.08108108 L32.7647059,0.864864865 C35.4411765,0.216216216 38.1176471,0 41,0 C38.1176471,0 35.4411765,0.432432432 32.7647059,0.864864865 L31.7352941,1.08108108 C29.0588235,1.72972973 27,4.10810811 27,6.91891892 L27,8 C27,8 27,8 27,8 Z" id="Shape" fill="#DFDDDC"></path>
            </g>
        </g>
    </g>
</svg>