<?xml version="1.0" encoding="UTF-8" standalone="no"?>
<svg width="413px" height="578px" viewBox="0 0 413 578" version="1.1" xmlns="http://www.w3.org/2000/svg" xmlns:xlink="http://www.w3.org/1999/xlink">
    <!-- Generator: Sketch 49.3 (51167) - http://www.bohemiancoding.com/sketch -->
    <title>Group</title>
    <desc>Created with Sketch.</desc>
    <defs></defs>
    <g id="Page-1" stroke="none" stroke-width="1" fill="none" fill-rule="evenodd">
        <g id="Artboard" transform="translate(-122.000000, -39.000000)">
            <g id="Group" transform="translate(122.000000, 39.000000)">
                <path d="M277.50014,463.071869 C293.589757,451.957425 302.604454,437.091994 297.633087,429.874349 C292.661719,422.656705 275.589476,425.813513 259.49986,436.931602 C243.410243,448.046045 234.395546,462.907831 239.366913,470.125476 C244.338281,477.34312 261.410524,474.186312 277.50014,463.071869" id="Fill-112" fill="#6CB7B9"></path>
                <polyline id="Fill-113" fill="#6CB7B9" points="287.154982 289 278 289.740838 289.848708 433 299 432.259162 287.154982 289"></polyline>
                <path d="M391.50014,451.071445 C407.589757,439.956571 416.604454,425.094209 411.633087,417.876285 C406.665359,410.654715 389.589476,413.815291 373.49986,424.930165 C357.410243,436.04504 348.395546,450.907402 353.366913,458.125326 C358.338281,465.34325 375.410524,462.186319 391.50014,451.071445" id="Fill-114" fill="#6CB7B9"></path>
                <polyline id="Fill-115" fill="#6CB7B9" points="401.154982 277 392 277.740838 403.848708 421 413 420.259162 401.154982 277"></polyline>
                <polyline id="Fill-116" fill="#6CB7B9" points="400.842621 277 278 286.92655 280.161036 313 403 303.07345 400.842621 277"></polyline>
                <polyline id="Fill-117" fill="#6CB7B9" points="399.974326 319 286 328.371735 287.025674 341 401 331.628265 399.974326 319"></polyline>
                <path d="M178.387855,392.464445 C174.875494,397.360031 170.001272,401.867486 163.385475,405.181252 L160.888121,406.407895 L160.263782,406.722794 C160.362362,406.686178 159.599282,407.03037 160.413478,406.682516 L159.986299,406.854612 L158.27028,407.55032 L154.827291,408.949059 C154.524249,409.066231 154.305183,409.128479 154.042304,409.220019 C152.676792,392.911162 151.28207,376.316699 149.898303,359.227917 C149.007434,348.631188 148.153076,337.496201 147.27316,326.628512 C150.789172,327.833185 154.275974,329.235586 157.613082,331.168921 C167.525825,336.851756 176.481979,346.269443 181.002044,357.920719 C185.646246,369.535379 185.182556,382.614686 178.387855,392.464445 Z M85.0912348,413.591994 C75.9634787,411.717244 67.2154374,408.52065 59.4604958,404.298802 C51.836994,399.963443 45.3343806,394.467351 41.3802367,388.004591 C39.3830837,384.778704 37.7875519,381.391705 36.9952627,377.656852 C36.3782264,375.86632 36.3745753,373.848767 36.0021629,371.93374 C36.0459761,369.890556 35.7173769,367.931589 35.9948606,365.782218 L36.1920202,362.60027 L36.7360344,359.319458 C36.9477984,357.140794 37.7619942,354.870589 38.254893,352.622354 L38.466657,351.772859 C38.5250746,351.534853 38.2475908,352.428289 38.4484015,351.802152 L38.6236544,351.27854 L39.3173638,349.198739 L40.712085,345.024492 C41.6540694,342.32954 42.5485895,339.253779 43.5343871,336.851756 C47.2585116,327.382806 51.7712742,317.287719 57.3647631,307.990865 C62.9911119,298.66838 69.449912,289.69741 76.7776746,280.894875 C88.8153592,266.618217 102.853848,252.202418 116.446902,236.548992 C117.96211,253.619465 119.579548,270.448272 121.277311,286.998796 C114.687071,287.646903 108.085878,288.851576 101.758517,291.37077 C94.047389,294.457516 86.8401128,299.375072 81.7103139,305.438716 C76.4527265,311.407157 73.3894515,318.162846 71.5821558,324.222828 C69.8916954,330.381673 69.2856124,335.991275 69.340379,341.036988 C69.4207032,351.106444 71.4726228,358.927665 73.4077071,365.024262 C75.4085112,371.117199 77.5553594,375.474527 79.1216823,378.35256 C80.6259365,381.215947 81.6482452,382.651302 81.6482452,382.651302 L85.7630376,381.457614 C85.7630376,381.457614 85.8652685,379.868471 86.062428,376.79271 C86.2960986,373.727934 86.7013709,369.194848 87.4571491,363.552291 C88.2129273,357.942689 89.4908132,351.110105 91.838472,344.204289 C94.2372463,337.327767 98.1585303,330.718542 103.346747,327.298589 C105.975541,325.570304 108.88912,324.288737 112.675313,323.519796 C116.14021,322.765503 120.375488,322.527497 125.059853,322.648331 C126.494736,335.70933 127.944224,348.631188 129.401014,361.28941 C131.533257,379.337536 133.658199,396.851066 135.735676,413.994772 C119.572246,417.026594 101.952026,417.118134 85.0912348,413.591994 Z M138.631001,80.4284875 C139.605845,68.601454 141.058984,56.6682335 143.888588,46.3278178 C144.582297,43.7683453 145.392842,41.3150597 146.287362,39.2828604 C147.032187,37.0712418 148.514535,35.3649267 148.087356,35.4857602 L149.536843,33.9295716 L150.175786,33.4279296 C151.026493,32.8091158 151.939269,31.8937107 152.695047,31.4726244 C153.173341,31.1613866 153.578614,30.9526743 154.009444,30.714669 C154.035002,30.7732549 154.060559,30.7769165 154.082466,30.8501489 C155.469885,33.7245208 156.667446,38.7885417 157.247972,43.9624111 C158.430929,54.5591402 157.857706,66.3385727 156.48124,77.9202776 C153.501941,101.186213 147.20744,124.492426 137.9665,145.799394 C137.714574,146.355961 137.440741,146.908865 137.181513,147.469093 C136.849263,125.129548 136.860216,102.562982 138.631001,80.4284875 Z M215.508613,344.478911 C207.560163,323.926236 192.696525,308.441244 176.25196,298.855122 C168.000468,294.062061 159.318147,290.667739 150.723452,288.741727 C148.635021,288.243747 146.542939,287.775059 144.19163,287.463822 C142.647213,266.614556 141.175819,245.461375 139.974606,223.89077 C139.678867,218.581421 139.609496,213.08899 139.346617,207.743025 C142.559587,203.360065 145.677628,198.903873 148.689788,194.363464 L151.417161,190.306389 L154.075164,185.971031 C155.65244,183.481129 157.397667,180.299181 159.102732,177.157511 C162.461746,170.965711 165.207375,165.000931 167.912842,158.7835 C178.318484,134.001654 184.86491,108.110337 187.668957,81.4024785 C188.93589,67.9899634 189.465299,54.4566149 187.588633,40.0701088 C186.496953,32.8274239 185.124139,25.4053195 180.939975,17.001901 C180.494541,15.998617 179.819087,14.8928077 179.070611,13.7833368 C178.34039,12.6848507 177.628425,11.6119959 176.825183,10.5391412 C174.707543,8.26161339 172.94041,6.08661094 169.731091,4.17158353 C166.981811,2.17600048 163.166409,0.934711203 159.606584,0.235341729 C157.843101,0.0595839551 156.039457,-0.0209716911 154.265021,0.00465965085 C152.410261,-0.0246333114 151.121422,0.422084363 149.533192,0.700367504 C143.384736,2.05882863 139.426941,4.66224065 135.768536,7.11186462 C133.888218,8.36413876 132.562868,9.6713372 130.952732,10.9712124 L129.802635,11.9525266 C130.379509,11.3520209 128.356798,13.3256342 128.440774,13.2780332 L128.046455,13.713766 L126.432667,15.5226064 C125.519892,16.7016481 124.636325,17.9209677 123.803874,19.162257 C123.416857,19.7517778 122.905702,20.4950868 122.661079,20.9674358 L121.901649,22.4137758 L120.419302,25.3284255 L119.276507,28.1075953 C117.761299,31.8314631 116.724386,35.3612651 115.848121,38.8288195 C112.423387,52.6550977 111.287895,65.5806173 110.455443,78.4255812 C108.509406,116.063376 110.108588,152.426927 112.591338,187.882396 C111.988906,188.68063 111.455845,189.533787 110.838809,190.321035 C107.355657,195.106773 103.522,199.650844 99.7978753,204.249839 C84.6567536,222.499354 67.2629017,239.192681 50.4860861,258.500405 C42.1652237,268.225669 34.333609,278.741842 27.4695365,289.836551 C20.5981618,301.004493 15.1324615,312.56789 10.1633111,325.006414 C8.90733186,328.056544 8.14790255,330.641648 7.11829167,333.475742 L5.67610622,337.628019 L4.95318794,339.700496 L4.42377809,341.28964 L4.07692337,342.563884 C3.20065879,345.994822 2.09802586,349.271972 1.58322042,352.88233 L0.674095918,358.199002 L0.214057014,363.691433 C-0.965249065,378.286651 2.74792209,394.449043 10.8679739,407.169512 C18.8529348,420.11334 30.2516766,429.304006 41.7563003,435.898585 C53.4033169,442.350359 65.4629082,446.605162 77.4312219,449.157312 C98.7938221,453.675751 119.864334,453.730675 140.084139,450.336353 C141.365676,461.196719 142.6034,471.881327 143.757148,482.265682 C145.743348,500.906991 147.733199,519.013703 148.288166,535.531272 C148.328329,537.556148 148.328329,539.577363 148.215144,541.331279 L148.131169,542.590876 L148.076402,542.876483 L147.926707,543.652746 C147.714943,544.597444 147.561597,545.922951 147.302369,546.545426 C146.67803,548.804646 144.907246,551.920685 142.848024,554.194551 C138.539723,558.98395 132.051714,562.162237 125.424963,564.154158 C117.009172,566.589136 108.367013,567.255551 100.068057,566.918681 C112.324808,561.063751 120.824574,548.793661 120.780761,534.491372 C120.722343,514.597789 104.281429,498.519615 84.0616239,498.578201 C63.8381676,498.640448 47.4958332,514.817486 47.5542509,534.714731 C47.5725064,540.448828 49.0767606,545.791132 51.515697,550.59884 C51.6179279,551.038234 51.5960212,551.48129 51.7201587,551.924346 C53.6990562,558.698344 59.0296658,563.571961 64.5610859,567.182318 C70.2239458,570.818307 76.6425838,573.213007 83.4263321,574.974246 C97.0011308,578.295336 112.29925,579.419453 128.510145,575.574752 C136.517012,573.502275 145.056941,570.140907 152.125475,563.121581 C155.575767,559.467284 158.485695,555.545689 160.325851,549.756667 C160.796843,548.416514 160.873516,547.629266 161.169256,546.53078 L161.355462,545.761839 L161.44674,545.377369 C161.51611,545.014869 161.421182,545.637344 161.621992,544.469288 L161.852012,542.590876 C162.118542,540.119283 162.206169,537.863725 162.268238,535.589858 C162.520164,517.691858 161.077978,499.742596 159.796441,480.797372 C158.978594,469.717309 158.076772,458.311362 157.138439,446.736981 L159.964392,445.942409 L164.301902,444.496069 C165.700274,444.009073 167.303108,443.489123 168.518925,443.016774 L171.965566,441.632682 L173.681584,440.944297 L174.112414,440.772201 C175.215047,440.314499 174.714846,440.501241 175.098211,440.336468 L176.131473,439.838488 L180.249917,437.835582 C191.163062,432.379767 201.265662,423.947056 208.640889,413.463837 C215.910234,402.896401 220.145513,390.369998 220.810014,378.33059 C221.69358,366.232597 219.422595,354.720463 215.508613,344.478911 Z" id="Fill-118" fill="#E05F55"></path>
                <path d="M285.749118,207.406342 C306.065022,198.505626 319.288,183.943146 315.285826,174.881397 C311.279977,165.819647 291.566787,165.691553 271.250882,174.59227 C250.934978,183.492986 237.712,198.055466 241.714174,207.117215 C245.720023,216.178964 265.433213,216.310718 285.749118,207.406342" id="Fill-119" fill="#EAAC49"></path>
                <polyline id="Fill-120" fill="#EAAC49" points="334 17.0998286 323.666622 16 306 176.900171 316.329665 178 334 17.0998286"></polyline>
                <polyline id="Fill-121" fill="#EAAC49" points="333.215125 17 382 66.7547263 379.360499 91 376.702643 70.0007877 332 28.1408035 333.215125 17"></polyline>
            </g>
        </g>
    </g>
</svg>