<?xml version="1.0" encoding="UTF-8" standalone="no"?>
<svg width="472px" height="543px" viewBox="0 0 472 543" version="1.1" xmlns="http://www.w3.org/2000/svg" xmlns:xlink="http://www.w3.org/1999/xlink">
    <!-- Generator: Sketch 49.3 (51167) - http://www.bohemiancoding.com/sketch -->
    <title>Group 2</title>
    <desc>Created with Sketch.</desc>
    <defs></defs>
    <g id="Page-1" stroke="none" stroke-width="1" fill="none" fill-rule="evenodd">
        <g id="Artboard" transform="translate(-92.000000, -57.000000)">
            <g id="Group-2" transform="translate(92.000000, 57.000000)">
                <path d="M299.03107,36.572445 L275.64268,83.4313852 C257.934805,73.8548354 235.397509,77.9914167 222.395223,94.2995092 L160.554267,171.870744 C145.936278,190.206765 148.925919,216.941956 167.231329,231.584391 L178.875402,240.899082 L18.8146078,474.24676 C8.99458947,488.564332 11.8839864,508.0482 25.4346681,518.886791 L37.7765206,528.758671 C51.3272023,539.599231 70.9357897,538.11077 82.7017283,525.350569 L274.477093,317.367753 L290.070009,329.840501 C308.375419,344.482935 335.065977,341.488294 349.683967,323.152273 L411.524923,245.581038 C424.93998,228.753166 423.487419,204.876764 409.014882,189.740145 L450.773547,157.948913 C484.235515,115.974722 477.391379,54.7785215 435.489227,21.2625661 C393.587075,-12.2553582 332.493038,-5.40174602 299.03107,36.572445 Z" id="Fill-6" fill="#D1ECF4"></path>
                <path d="M5.82623591,481.267878 C-4.01342062,495.580554 -1.11824546,515.057759 12.4595352,525.892644 L24.8260691,535.761147 C38.4038498,546.598 58.0516507,545.110048 69.8411191,532.354211 L262,324.442521 L166.207123,248 L5.82623591,481.267878" id="Fill-17" fill="#4F433B"></path>
                <path d="M422.555667,28.2916858 C380.729766,-5.27214235 319.746905,1.59085611 286.345829,43.6225321 L263,90.5456472 C265.197439,91.7384407 267.336018,93.1086745 269.356878,94.7312679 L391.97006,193.119971 C393.472952,194.326565 394.834579,195.641596 396.129499,197 L437.812173,165.165229 C471.213249,123.133553 464.381568,61.8535424 422.555667,28.2916858" id="Fill-64" fill="#DE4C56"></path>
                <path d="M366.077446,251.439524 L328.638459,298.353575 C314.058285,316.626173 287.434305,319.609534 269.175611,305.019832 L186.60189,239.037094 C168.341227,224.445421 165.359813,197.806012 179.939987,179.533415 L217.378974,132.619363 C231.961117,114.348737 258.583127,111.365375 276.841821,125.955077 L359.417512,191.937815 C377.676206,206.529488 380.657619,233.168897 366.077446,251.439524 Z M268.972781,94.2711463 C266.944475,92.6494114 264.798015,91.2799026 262.592478,90.0877402 C244.851691,80.5031491 222.272509,84.6432038 209.246057,100.96499 L147.290166,178.60136 C132.645008,196.952779 135.640205,223.710419 153.979637,238.365148 L277.046621,336.703763 C295.386053,351.358492 322.126217,348.361337 336.771375,330.009919 L398.727267,252.373549 C412.167257,235.531546 410.711996,211.635095 396.212561,196.485766 C394.91287,195.12808 393.546225,193.813746 392.037795,192.60779 L268.972781,94.2711463 Z" id="Fill-65" fill="#BFE4EF"></path>
                <path d="M250.554163,226.085111 C244.65472,233.501013 242.63537,242.287498 248.571563,247.045712 C253.979708,251.380715 261.304689,248.146449 267.097749,240.864499 C273.523306,232.786601 272.724463,223.472073 269.846309,217.04431 C263.070653,216.601686 255.821108,219.465156 250.554163,226.085111" id="Fill-66" fill="#E4E4E3"></path>
                <path d="M301.082743,181.848072 C295.94519,177.711053 289.303237,181.067013 284.984284,186.516452 C280.019172,192.782908 280.078634,199.972254 283.055719,206.831996 C288.460853,207.834788 295.077038,204.235122 299.177963,199.057355 C303.929011,193.062572 306.220296,185.981097 301.082743,181.848072" id="Fill-67" fill="#E4E4E3"></path>
                <path d="M316.193339,209.981001 C311.593763,215.741745 303.119,221.697002 289.416464,220.180189 L289.202485,220.449364 C293.707832,231.291036 292.64775,243.614154 284.416413,253.931229 C271.5855,270.011012 252.319499,269.975646 237.992693,258.526856 C223.13192,246.647779 220.142098,228.677875 231.477118,214.47446 C240.138377,203.619034 252.362688,200.664001 263.095032,201.779998 L263.310974,201.510822 C259.797,190.802756 262.433462,180.621251 267.886993,173.787736 C279.22005,159.582356 297.418117,159.86332 310.806555,170.561563 C323.258587,180.515153 326.562508,196.981998 316.193339,209.981001 Z M359.140384,192.018956 L276.821125,126.228202 C258.619132,111.68095 232.079794,114.655631 217.542935,132.873098 L180.220211,179.650648 C165.685315,197.87008 168.65747,224.431979 186.861426,238.981196 L269.178722,304.771951 C287.380715,319.319203 313.922017,316.344522 328.456913,298.12509 L365.779636,251.34754 C380.314532,233.130073 377.342378,206.568174 359.140384,192.018956 Z" id="Fill-68" fill="#FFFFFE"></path>
                <path d="M299.422736,199.007494 C295.351683,204.109022 288.783691,207.655686 283.417929,206.667658 C280.462529,199.908921 280.4035,192.825434 285.332445,186.651247 C289.619939,181.282047 296.213511,177.975501 301.313641,182.051606 C306.413771,186.123774 304.139176,193.10098 299.422736,199.007494 Z M267.383607,241.345057 C261.490516,248.727708 254.039053,252.0067 248.537523,247.611749 C242.498827,242.787735 244.553046,233.879743 250.554357,226.361288 C255.912249,219.649787 263.286974,216.746719 270.179627,217.195464 C273.10748,223.712115 273.920117,233.155452 267.383607,241.345057 Z M311.41552,170.771955 C297.996195,160.055204 279.756145,159.773754 268.396943,174.00371 C262.930831,180.849047 260.288287,191.048166 263.810367,201.774758 L263.593927,202.044399 C252.836823,200.926471 240.584311,203.886617 231.90307,214.760823 C220.5419,228.988811 223.53862,246.989804 238.433677,258.889432 C252.793535,270.358029 272.103982,270.393456 284.964496,254.285854 C293.214823,243.95093 294.27735,231.606493 289.761609,220.746064 L289.976083,220.476424 C303.71023,221.99586 312.204544,216.0303 316.814732,210.259591 C327.207821,197.238098 323.896278,180.742765 311.41552,170.771955 Z" id="Fill-69" fill="#4F433B"></path>
            </g>
        </g>
    </g>
</svg>