<?xml version="1.0" encoding="iso-8859-1"?>
<!-- Generator: Adobe Illustrator 19.0.0, SVG Export Plug-In . SVG Version: 6.00 Build 0)  -->
<svg version="1.1" id="Layer_1" xmlns="http://www.w3.org/2000/svg" xmlns:xlink="http://www.w3.org/1999/xlink" x="0px" y="0px"
	 viewBox="0 0 512 512" style="enable-background:new 0 0 512 512;" xml:space="preserve">
<polygon style="fill:#F2D6A8;" points="349.091,38.788 162.909,38.788 147.394,131.879 364.606,131.879 "/>
<path style="fill:#7BD9BF;" d="M488.727,108.606H384.321l-12.274-73.644c-1.871-11.222-11.581-19.447-22.956-19.447H162.909
	c-11.376,0-21.085,8.225-22.956,19.447l-12.274,73.644H23.273C10.42,108.606,0,119.026,0,131.879v341.333
	c0,12.853,10.42,23.273,23.273,23.273h465.455c12.853,0,23.273-10.42,23.273-23.273V131.879
	C512,119.026,501.58,108.606,488.727,108.606z M174.867,108.606l7.758-46.545h146.752l7.758,46.545H174.867z"/>
<path style="fill:#72C8B0;" d="M488.727,108.606H384.321l-12.274-73.644c-1.871-11.222-11.581-19.447-22.956-19.447H256v46.545
	h73.376l7.758,46.545H256v387.879h232.727c12.853,0,23.273-10.42,23.273-23.273V131.879C512,119.026,501.58,108.606,488.727,108.606
	z"/>
<path style="fill:#3C695E;" d="M395.636,201.697h-46.545c-12.853,0-23.273,10.42-23.273,23.273c0,12.853,10.42,23.273,23.273,23.273
	h46.545c12.853,0,23.273-10.42,23.273-23.273C418.909,212.117,408.489,201.697,395.636,201.697z"/>
<circle style="fill:#F2D6A8;" cx="193.939" cy="302.545" r="77.576"/>
<path style="fill:#3C695E;" d="M193.939,403.394c-55.608,0-100.848-45.239-100.848-100.848s45.241-100.848,100.848-100.848
	s100.848,45.239,100.848,100.848S249.547,403.394,193.939,403.394z M193.939,248.242c-29.943,0-54.303,24.36-54.303,54.303
	s24.36,54.303,54.303,54.303s54.303-24.36,54.303-54.303S223.882,248.242,193.939,248.242z"/>
<g>
</g>
<g>
</g>
<g>
</g>
<g>
</g>
<g>
</g>
<g>
</g>
<g>
</g>
<g>
</g>
<g>
</g>
<g>
</g>
<g>
</g>
<g>
</g>
<g>
</g>
<g>
</g>
<g>
</g>
</svg>
