<?xml version="1.0" encoding="iso-8859-1"?>
<!-- Generator: Adobe Illustrator 19.0.0, SVG Export Plug-In . SVG Version: 6.00 Build 0)  -->
<svg version="1.1" id="Capa_1" xmlns="http://www.w3.org/2000/svg" xmlns:xlink="http://www.w3.org/1999/xlink" x="0px" y="0px"
	 viewBox="0 0 512 512" style="enable-background:new 0 0 512 512;" xml:space="preserve">
<path style="fill:#F98742;" d="M511.7,241c-3.3-53.701-24.101-103.2-55.6-143.101c-6.299-7.8-12.9-15.3-19.799-22.2
	C393.401,32.8,335.2,4.2,271,0.3C265.901,0,261.099,0,256,0s-9.901,0-15,0.3C176.8,4.2,118.599,32.8,75.7,75.7
	c-7.2,7.2-13.799,14.7-19.799,22.5C24.401,138.1,3.6,187.299,0.3,241C0,246.099,0,250.899,0,256c0,5.099,0,9.899,0.3,15
	c3.3,53.699,24.101,102.9,55.6,142.8c6.299,8.099,12.9,15.599,20.099,22.5c42.9,42.9,100.8,71.499,165,75.399
	c5.099,0.3,9.901,0.3,15,0.3s9.901,0,15-0.3c64.2-3.9,122.1-32.5,165-75.101c7.2-7.2,13.801-14.7,20.099-22.5
	C487.599,374.2,508.4,324.699,511.7,271c0.3-5.101,0.3-9.901,0.3-15C512,250.899,512,246.099,511.7,241z"/>
<path style="fill:#EC743E;" d="M271,511.7c64.2-3.9,122.1-32.5,165-75.101c7.2-7.2,13.801-14.7,20.099-22.5
	C487.599,374.2,508.4,324.699,511.7,271c0.3-5.101,0.3-9.901,0.3-15c0-5.101,0-9.901-0.3-15c-3.3-53.701-24.101-103.2-55.6-143.101
	c-6.299-7.8-12.9-15.3-19.799-22.2C393.401,32.8,335.2,4.2,271,0.3C265.901,0,261.099,0,256,0v512
	C261.099,512,265.901,512,271,511.7z"/>
<path style="fill:#995D5C;" d="M511.7,271H392.2c3.6,54.6,26.7,105.3,63.9,143.099c-6.299,7.8-12.9,15.3-20.099,22.5
	C392.5,393.1,365.799,334.6,362.199,271H271v240.7c-5.099,0.3-9.901,0.3-15,0.3s-9.901,0-15-0.3V271h-91.199
	c-3.9,63.3-30.3,121.8-73.801,165.3c-7.2-6.901-13.801-14.401-20.099-22.5c37.2-37.5,60.3-88.2,63.9-142.8H0.3
	C0,265.899,0,261.099,0,256c0-5.101,0-9.901,0.3-15h120.099C116.8,185.799,92.8,135.399,55.901,98.2c6-7.8,12.599-15.3,19.799-22.5
	c43.2,42.9,70.8,101.4,74.7,165.3H241V0.3C246.099,0,250.901,0,256,0s9.901,0,15,0.3V241h90.601c3.9-64.2,31.5-122.701,74.7-165.3
	c6.899,6.899,13.5,14.399,19.799,22.2c-36.9,37.499-60.9,87.599-64.499,143.1H511.7c0.3,5.099,0.3,9.899,0.3,15
	C512,261.099,512,265.899,511.7,271z"/>
<path style="fill:#994D4D;" d="M271,511.7V271h91.199c3.6,63.6,30.3,122.1,73.801,165.599c7.2-7.2,13.801-14.7,20.099-22.5
	c-37.2-37.798-60.3-88.499-63.9-143.099h119.5c0.3-5.101,0.3-9.901,0.3-15c0-5.101,0-9.901-0.3-15H391.601
	c3.6-55.501,27.599-105.601,64.499-143.101c-6.299-7.8-12.9-15.3-19.799-22.2c-43.2,42.599-70.8,101.1-74.7,165.3H271V0.3
	C265.901,0,261.099,0,256,0v512C261.099,512,265.901,512,271,511.7z"/>
<g>
</g>
<g>
</g>
<g>
</g>
<g>
</g>
<g>
</g>
<g>
</g>
<g>
</g>
<g>
</g>
<g>
</g>
<g>
</g>
<g>
</g>
<g>
</g>
<g>
</g>
<g>
</g>
<g>
</g>
</svg>
