<?xml version="1.0" encoding="iso-8859-1"?>
<!-- Generator: Adobe Illustrator 19.0.0, SVG Export Plug-In . SVG Version: 6.00 Build 0)  -->
<svg version="1.1" id="Capa_1" xmlns="http://www.w3.org/2000/svg" xmlns:xlink="http://www.w3.org/1999/xlink" x="0px" y="0px"
	 viewBox="0 0 512 512" style="enable-background:new 0 0 512 512;" xml:space="preserve">
<path style="fill:#17ACE8;" d="M256,0C115.3,0,0,115.3,0,256s115.3,256,256,256s256-115.3,256-256S396.7,0,256,0z"/>
<path style="fill:#1689FC;" d="M512,256c0,140.7-115.3,256-256,256V0C396.7,0,512,115.3,512,256z"/>
<path style="fill:#1DE8F1;" d="M256,30C131.8,30,30,131.8,30,256s101.8,226,226,226s226-101.8,226-226S380.2,30,256,30z"/>
<path style="fill:#1BD9DE;" d="M482,256c0,124.2-101.8,226-226,226V30C380.2,30,482,131.8,482,256z"/>
<g>
	<path style="fill:#17ACE8;" d="M512,256c0,8.399-6.599,15-15,15H15c-8.401,0-15-6.601-15-15c0-8.401,6.599-15,15-15h482
		C505.401,241,512,247.599,512,256z"/>
	<path style="fill:#17ACE8;" d="M271,15v482c0,8.399-6.599,15-15,15s-15-6.601-15-15V15c0-8.401,6.599-15,15-15S271,6.599,271,15z"
		/>
	<path style="fill:#17ACE8;" d="M256,0c-75.601,0-135,112.899-135,256c0,143.099,59.399,256,135,256s135-112.901,135-256
		C391,112.899,331.601,0,256,0z M256,482c-57.001,0-105-103.9-105-226S198.999,30,256,30s105,103.9,105,226S313.001,482,256,482z"/>
	<path style="fill:#17ACE8;" d="M446.8,424.9c-2.699,4.499-7.8,6.899-12.9,6.899c-2.699,0-5.4-0.601-7.8-2.1
		C374.5,397.599,315.399,381.7,256,381.7s-118.5,15.899-170.099,47.999c-7.2,4.501-16.5,2.1-20.7-4.799
		c-4.2-7.2-2.1-16.501,4.799-20.7c56.4-34.801,121.201-52.2,186-52.2s129.6,17.399,186,52.2C448.9,408.399,451,417.7,446.8,424.9z"
		/>
	<path style="fill:#17ACE8;" d="M445.3,110.4C387.7,146.7,322,165,256,165s-131.7-18.3-189.3-54.6c-6.899-4.501-9-13.801-4.501-20.7
		c4.2-7.2,13.5-9.3,20.7-4.801C135.399,118.2,195.7,135,256,135s120.601-16.8,173.101-50.101c7.2-4.499,16.5-2.399,20.7,4.801
		C454.3,96.599,452.199,105.899,445.3,110.4z"/>
</g>
<g>
	<path style="fill:#1689FC;" d="M271,15v482c0,8.399-6.599,15-15,15V0C264.401,0,271,6.599,271,15z"/>
	<path style="fill:#1689FC;" d="M446.8,424.9c-2.699,4.499-7.8,6.899-12.9,6.899c-2.699,0-5.4-0.601-7.8-2.1
		C374.5,397.599,315.399,381.7,256,381.7V352c64.799,0,129.6,17.399,186,52.2C448.9,408.399,451,417.7,446.8,424.9z"/>
	<path style="fill:#1689FC;" d="M512,256c0,8.399-6.599,15-15,15H256v-30h241C505.401,241,512,247.599,512,256z"/>
	<path style="fill:#1689FC;" d="M445.3,110.4C387.7,146.7,322,165,256,165v-30c60.3,0,120.601-16.8,173.101-50.101
		c7.2-4.499,16.5-2.399,20.7,4.801C454.3,96.599,452.199,105.899,445.3,110.4z"/>
	<path style="fill:#1689FC;" d="M391,256c0,143.099-59.399,256-135,256v-30c57.001,0,105-103.9,105-226S313.001,30,256,30V0
		C331.601,0,391,112.899,391,256z"/>
</g>
<g>
</g>
<g>
</g>
<g>
</g>
<g>
</g>
<g>
</g>
<g>
</g>
<g>
</g>
<g>
</g>
<g>
</g>
<g>
</g>
<g>
</g>
<g>
</g>
<g>
</g>
<g>
</g>
<g>
</g>
</svg>
